<svg width="53" height="52" viewBox="0 0 53 52" fill="none" xmlns="http://www.w3.org/2000/svg">
<path d="M26.5157 51.8029C40.7318 51.8029 52.2561 40.2786 52.2561 26.0625C52.2561 11.8465 40.7318 0.322144 26.5157 0.322144C12.2997 0.322144 0.775314 11.8465 0.775314 26.0625C0.775314 40.2786 12.2997 51.8029 26.5157 51.8029Z" fill="#1B76FF"/>
<path fill-rule="evenodd" clip-rule="evenodd" d="M13.1058 20.9686H17.7516V39.1298H13.1058C12.4063 39.1298 11.8392 38.5897 11.8392 37.9235V22.1749C11.8392 21.5087 12.4063 20.9686 13.1058 20.9686Z" stroke="white" stroke-width="1.60838" stroke-linecap="round" stroke-linejoin="round"/>
<path fill-rule="evenodd" clip-rule="evenodd" d="M39.7796 35.7296C39.4855 37.993 37.9732 39.1297 35.2848 39.1297H21.2172C19.3058 39.1297 17.7516 37.6668 17.7516 35.868V20.9904C22.2128 20.5555 24.4434 18.9981 24.4434 14.8103V12.8034C24.4434 10.6882 26.2439 8.97339 28.4649 8.97339C29.3113 8.97339 30.1361 9.22767 30.8219 9.70013C31.7671 10.3525 32.3693 11.588 32.3693 13.3672V19.1764C32.3693 19.6705 33.2058 20.0758 34.0424 20.0758H38.5298C40.4202 20.0758 41.9535 21.4991 41.9955 23.2684C42.0235 24.4479 41.2849 28.099 39.7796 35.7296Z" stroke="white" stroke-width="1.60838" stroke-linecap="round" stroke-linejoin="round"/>
</svg>
