<svg width="52" height="53" viewBox="0 0 52 53" fill="none" xmlns="http://www.w3.org/2000/svg">
<path d="M26.1407 52.3967C40.3568 52.3967 51.8811 40.8723 51.8811 26.6563C51.8811 12.4402 40.3568 0.915894 26.1407 0.915894C11.9247 0.915894 0.40033 12.4402 0.40033 26.6563C0.40033 40.8723 11.9247 52.3967 26.1407 52.3967Z" fill="#5CC97B"/>
<path fill-rule="evenodd" clip-rule="evenodd" d="M28.8976 33.0292C27.0546 34.2479 24.8249 34.9189 22.4491 34.8208C16.4399 34.5726 11.7695 29.4995 12.0177 23.4901C12.2659 17.4807 17.3387 12.8111 23.3478 13.0593C29.356 13.3073 34.0275 18.3794 33.7793 24.3889C33.6918 26.5072 33.0047 28.4592 31.8884 30.088L39.225 37.2115C40.1302 38.1929 40.0978 39.7099 39.1677 40.6499L39.125 40.6893L39.0798 40.7284C38.0688 41.5779 36.5542 41.4868 35.6499 40.5046L28.8976 33.0292ZM22.5528 32.309C17.9306 32.1181 14.3378 28.2157 14.5287 23.5935C14.7196 18.9713 18.6219 15.3785 23.2442 15.5694C27.8664 15.7603 31.4593 19.6626 31.2684 24.2848C31.0774 28.9071 27.175 32.4999 22.5528 32.309Z" fill="white"/>
</svg>
