<svg width="164" height="32" viewBox="0 0 164 32" fill="none" xmlns="http://www.w3.org/2000/svg">
<path d="M52.8865 27.8316C50.5298 27.8316 48.4466 27.3567 46.6369 26.4079C44.8267 25.4371 43.4276 24.0673 42.4385 22.2989C41.4499 20.5302 40.9554 18.4487 40.9554 16.0545C40.9554 13.6603 41.4499 11.5789 42.4385 9.81019C43.4276 8.01988 44.8267 6.65026 46.6369 5.70117C48.4466 4.73055 50.5298 4.24524 52.8865 4.24524C54.4862 4.24524 55.8958 4.41781 57.1165 4.76289C58.3581 5.08645 59.4942 5.6041 60.5253 6.31589V11.0072C59.5997 10.2308 58.5371 9.66996 57.3375 9.32482C56.1589 8.95816 54.8122 8.77483 53.2971 8.77483C51.8875 8.77483 50.6138 9.07681 49.4777 9.68072C48.3626 10.2631 47.4785 11.1043 46.8265 12.2043C46.1739 13.3044 45.8479 14.5877 45.8479 16.0545C45.8479 17.5428 46.1424 18.8477 46.7314 19.9694C47.342 21.0694 48.1941 21.9214 49.2882 22.5253C50.3823 23.1293 51.6454 23.4313 53.0761 23.4313C54.3807 23.4313 55.5168 23.194 56.4849 22.7195V18.3516H52.918V14.728H61.1248V25.6314C59.0416 27.098 56.2959 27.8316 52.8865 27.8316Z" fill="#81818B"/>
<path d="M62.2331 11.8161H66.8415V14.0486C67.4521 13.2936 68.3042 12.722 69.3983 12.3338C70.4924 11.924 71.7345 11.7191 73.1232 11.7191V15.4398C71.671 15.4398 70.3874 15.6663 69.2723 16.1192C68.1777 16.5722 67.4201 17.2624 66.9996 18.1899V27.3463H62.2331V11.8161Z" fill="#81818B"/>
<path d="M82.2829 27.8316C79.3786 27.8316 77.0954 27.1195 75.4332 25.6958C73.7705 24.2511 72.9395 22.2342 72.9395 19.6458C72.9395 17.079 73.676 15.0515 75.1492 13.5633C76.6433 12.0749 78.7685 11.3308 81.5253 11.3308C83.335 11.3308 84.8706 11.6759 86.1338 12.3661C87.3959 13.0563 88.354 14.0162 89.006 15.2456C89.6586 16.4535 89.9846 17.8232 89.9846 19.3546V21.3282H77.4849C77.8214 23.3127 79.6311 24.305 82.9139 24.305C83.882 24.305 84.8816 24.2187 85.9127 24.0459C86.9438 23.8734 87.8384 23.6361 88.596 23.3342V26.764C87.8594 27.0871 86.9123 27.3462 85.7547 27.5405C84.5976 27.7342 83.44 27.8316 82.2829 27.8316ZM85.4707 18.1575C85.4077 17.1222 85.0286 16.3241 84.3346 15.7633C83.64 15.181 82.6824 14.8897 81.4618 14.8897C80.2627 14.8897 79.3156 15.181 78.621 15.7633C77.9269 16.3457 77.5479 17.1438 77.4849 18.1575H85.4707Z" fill="#81818B"/>
<path d="M99.7543 27.8316C96.8505 27.8316 94.5673 27.1195 92.9046 25.6958C91.2425 24.2511 90.4109 22.2342 90.4109 19.6458C90.4109 17.079 91.1475 15.0515 92.6206 13.5633C94.1148 12.0749 96.24 11.3308 98.9967 11.3308C100.806 11.3308 102.343 11.6759 103.606 12.3661C104.868 13.0563 105.825 14.0162 106.477 15.2456C107.13 16.4535 107.456 17.8232 107.456 19.3546V21.3282H94.9563C95.2929 23.3127 97.1031 24.305 100.386 24.305C101.354 24.305 102.354 24.2187 103.384 24.0459C104.415 23.8734 105.31 23.6361 106.067 23.3342V26.764C105.331 27.0871 104.384 27.3462 103.227 27.5405C102.069 27.7342 100.912 27.8316 99.7543 27.8316ZM102.943 18.1575C102.879 17.1222 102.501 16.3241 101.807 15.7633C101.111 15.181 100.154 14.8897 98.9337 14.8897C97.7341 14.8897 96.7875 15.181 96.093 15.7633C95.3984 16.3457 95.0199 17.1438 94.9563 18.1575H102.943Z" fill="#81818B"/>
<path d="M108.515 11.8161H113.122V13.725C113.818 12.927 114.638 12.3338 115.585 11.9455C116.553 11.5357 117.563 11.3308 118.615 11.3308C120.678 11.3308 122.214 11.9024 123.223 13.0456C124.255 14.1672 124.771 15.6878 124.771 17.6075V27.3462H120.004V18.1575C120.004 16.1516 119.099 15.1486 117.289 15.1486C116.49 15.1486 115.743 15.3535 115.048 15.7633C114.354 16.1516 113.765 16.734 113.28 17.5104V27.3462H108.515V11.8161Z" fill="#81818B"/>
<path d="M128.975 9.42188C128.239 9.42188 127.619 9.17387 127.114 8.67774C126.608 8.18167 126.356 7.55613 126.356 6.80118C126.356 6.06786 126.608 5.45314 127.114 4.95702C127.619 4.43937 128.239 4.18054 128.975 4.18054C129.712 4.18054 130.333 4.43937 130.838 4.95702C131.343 5.45314 131.596 6.06786 131.596 6.80118C131.596 7.55613 131.343 8.18167 130.838 8.67774C130.333 9.17387 129.712 9.42188 128.975 9.42188ZM126.577 11.8161H131.375V27.3462H126.577V11.8161Z" fill="#81818B"/>
<path d="M139.504 27.8316C138.368 27.8316 137.147 27.7018 135.842 27.4431C134.559 27.2059 133.549 26.8608 132.812 26.4079V22.5901C133.654 23.1077 134.664 23.5283 135.842 23.8518C137.021 24.1752 138.115 24.337 139.125 24.337C139.988 24.337 140.619 24.2616 141.019 24.1108C141.418 23.9597 141.618 23.6793 141.618 23.2695C141.618 22.946 141.503 22.6871 141.271 22.493C141.04 22.2773 140.682 22.0939 140.198 21.943C139.735 21.7704 138.956 21.5224 137.862 21.1988C136.579 20.8106 135.568 20.4223 134.832 20.0341C134.117 19.6242 133.57 19.1174 133.191 18.5134C132.833 17.9095 132.654 17.1329 132.654 16.1839C132.654 14.5662 133.274 13.3583 134.517 12.5603C135.779 11.7406 137.483 11.3308 139.63 11.3308C140.682 11.3308 141.766 11.4494 142.881 11.6867C144.017 11.9024 144.891 12.1936 145.501 12.5603V16.281C144.891 15.8712 144.091 15.5368 143.102 15.278C142.134 15.0192 141.187 14.8897 140.261 14.8897C139.398 14.8897 138.725 14.976 138.241 15.1486C137.778 15.3212 137.546 15.6447 137.546 16.1192C137.546 16.529 137.767 16.8418 138.209 17.0575C138.672 17.2732 139.525 17.5428 140.766 17.8664L141.398 18.0281C142.723 18.3948 143.754 18.8046 144.491 19.2576C145.227 19.689 145.743 20.2174 146.038 20.8429C146.353 21.4469 146.511 22.2126 146.511 23.1401C146.511 24.5637 145.911 25.7068 144.712 26.5697C143.513 27.4107 141.776 27.8316 139.504 27.8316Z" fill="#81818B"/>
<path d="M147.613 3.4364H152.379V13.5956C153.095 12.8407 153.905 12.2799 154.809 11.9132C155.715 11.5249 156.683 11.3308 157.714 11.3308C159.776 11.3308 161.312 11.9024 162.322 13.0456C163.353 14.1672 163.869 15.6878 163.869 17.6076V27.3463H159.103V18.1576C159.103 16.1516 158.198 15.1486 156.388 15.1486C155.588 15.1486 154.842 15.3535 154.147 15.7633C153.452 16.1516 152.863 16.734 152.379 17.5104V27.3463H147.613V3.4364Z" fill="#81818B"/>
<path fill-rule="evenodd" clip-rule="evenodd" d="M24.6772 8.01421C24.6772 12.124 21.4271 15.4556 17.4175 15.4556C13.4079 15.4556 10.1575 12.124 10.1575 8.01421C10.1575 3.9044 13.4079 0.572754 17.4175 0.572754C21.4271 0.572754 24.6772 3.9044 24.6772 8.01421ZM0.53023 14.9148C8.43977 14.3683 15.3332 20.4383 15.9753 28.5628C16.0418 29.4045 16.0386 30.2356 15.9707 31.0504C8.06114 31.5969 1.16774 25.5268 0.52561 17.4024C0.459145 16.5606 0.462295 15.7293 0.53023 14.9148ZM21.0883 30.7659C29.0146 30.1075 34.9363 23.042 34.4034 14.9348C33.6085 14.8651 32.7979 14.8618 31.9763 14.93C24.05 15.5882 18.1282 22.6539 18.6614 30.7611C19.4561 30.831 20.2669 30.8341 21.0883 30.7659Z" fill="#81818B"/>
<path d="M52.8865 27.566C50.5298 27.566 48.4466 27.0911 46.6369 26.1423C44.8267 25.1715 43.4276 23.8017 42.4385 22.0333C41.4499 20.2645 40.9554 18.1831 40.9554 15.7889C40.9554 13.3946 41.4499 11.3132 42.4385 9.54456C43.4276 7.75426 44.8267 6.38464 46.6369 5.43554C48.4466 4.46492 50.5298 3.97961 52.8865 3.97961C54.4862 3.97961 55.8958 4.15218 57.1165 4.49726C58.3581 4.82082 59.4942 5.33847 60.5253 6.05027V10.7416C59.5997 9.96514 58.5371 9.40433 57.3375 9.0592C56.1589 8.69254 54.8122 8.50921 53.2971 8.50921C51.8875 8.50921 50.6138 8.81119 49.4777 9.4151C48.3626 9.99748 47.4785 10.8387 46.8265 11.9387C46.1739 13.0387 45.8479 14.3221 45.8479 15.7889C45.8479 17.2772 46.1424 18.5821 46.7314 19.7037C47.342 20.8038 48.1941 21.6558 49.2882 22.2597C50.3823 22.8637 51.6454 23.1656 53.0761 23.1656C54.3807 23.1656 55.5168 22.9284 56.4849 22.4538V18.086H52.918V14.4623H61.1248V25.3657C59.0416 26.8324 56.2959 27.566 52.8865 27.566Z" fill="#81818B"/>
<path d="M62.2331 11.5505H66.8415V13.783C67.4521 13.028 68.3042 12.4564 69.3983 12.0682C70.4924 11.6583 71.7345 11.4535 73.1232 11.4535V15.1742C71.671 15.1742 70.3874 15.4006 69.2723 15.8536C68.1777 16.3066 67.4201 16.9968 66.9996 17.9243V27.0806H62.2331V11.5505Z" fill="#81818B"/>
<path d="M82.2829 27.566C79.3786 27.566 77.0954 26.8539 75.4332 25.4302C73.7705 23.9855 72.9395 21.9685 72.9395 19.3802C72.9395 16.8134 73.676 14.7859 75.1492 13.2976C76.6433 11.8093 78.7685 11.0652 81.5253 11.0652C83.335 11.0652 84.8706 11.4103 86.1338 12.1005C87.3959 12.7907 88.354 13.7506 89.006 14.98C89.6586 16.1879 89.9846 17.5576 89.9846 19.089V21.0626H77.4849C77.8214 23.047 79.6311 24.0394 82.9139 24.0394C83.882 24.0394 84.8816 23.953 85.9127 23.7803C86.9438 23.6078 87.8384 23.3705 88.596 23.0686V26.4983C87.8594 26.8214 86.9123 27.0806 85.7547 27.2749C84.5976 27.4686 83.44 27.566 82.2829 27.566ZM85.4707 17.8919C85.4077 16.8566 85.0286 16.0585 84.3346 15.4977C83.64 14.9153 82.6824 14.6241 81.4618 14.6241C80.2627 14.6241 79.3156 14.9153 78.621 15.4977C77.9269 16.0801 77.5479 16.8781 77.4849 17.8919H85.4707Z" fill="#81818B"/>
<path d="M99.7543 27.566C96.8505 27.566 94.5673 26.8539 92.9046 25.4302C91.2425 23.9855 90.4109 21.9685 90.4109 19.3802C90.4109 16.8134 91.1475 14.7859 92.6206 13.2976C94.1148 11.8093 96.24 11.0652 98.9967 11.0652C100.806 11.0652 102.343 11.4103 103.606 12.1005C104.868 12.7907 105.825 13.7506 106.477 14.98C107.13 16.1879 107.456 17.5576 107.456 19.089V21.0626H94.9563C95.2929 23.047 97.1031 24.0394 100.386 24.0394C101.354 24.0394 102.354 23.953 103.384 23.7803C104.415 23.6078 105.31 23.3705 106.067 23.0686V26.4983C105.331 26.8214 104.384 27.0806 103.227 27.2749C102.069 27.4686 100.912 27.566 99.7543 27.566ZM102.943 17.8919C102.879 16.8566 102.501 16.0585 101.807 15.4977C101.111 14.9153 100.154 14.6241 98.9337 14.6241C97.7341 14.6241 96.7875 14.9153 96.093 15.4977C95.3984 16.0801 95.0199 16.8781 94.9563 17.8919H102.943Z" fill="#81818B"/>
<path d="M108.515 11.5505H113.122V13.4594C113.818 12.6613 114.638 12.0682 115.585 11.6799C116.553 11.2701 117.563 11.0652 118.615 11.0652C120.678 11.0652 122.214 11.6368 123.223 12.7799C124.255 13.9016 124.771 15.4222 124.771 17.3419V27.0806H120.004V17.8919C120.004 15.8859 119.099 14.883 117.289 14.883C116.49 14.883 115.743 15.0879 115.048 15.4977C114.354 15.8859 113.765 16.4683 113.28 17.2448V27.0806H108.515V11.5505Z" fill="#81818B"/>
<path d="M128.975 9.15625C128.239 9.15625 127.619 8.90824 127.114 8.41212C126.608 7.91605 126.356 7.29051 126.356 6.53556C126.356 5.80224 126.608 5.18752 127.114 4.69139C127.619 4.17374 128.239 3.91492 128.975 3.91492C129.712 3.91492 130.333 4.17374 130.838 4.69139C131.343 5.18752 131.596 5.80224 131.596 6.53556C131.596 7.29051 131.343 7.91605 130.838 8.41212C130.333 8.90824 129.712 9.15625 128.975 9.15625ZM126.577 11.5505H131.375V27.0806H126.577V11.5505Z" fill="#81818B"/>
<path d="M139.504 27.566C138.368 27.566 137.147 27.4362 135.842 27.1775C134.559 26.9403 133.549 26.5952 132.812 26.1423V22.3244C133.654 22.8421 134.664 23.2627 135.842 23.5862C137.021 23.9096 138.115 24.0714 139.125 24.0714C139.988 24.0714 140.619 23.996 141.019 23.8451C141.418 23.6941 141.618 23.4137 141.618 23.0039C141.618 22.6803 141.503 22.4215 141.271 22.2274C141.04 22.0117 140.682 21.8283 140.198 21.6774C139.735 21.5048 138.956 21.2567 137.862 20.9332C136.579 20.5449 135.568 20.1567 134.832 19.7685C134.117 19.3586 133.57 18.8518 133.191 18.2478C132.833 17.6439 132.654 16.8673 132.654 15.9183C132.654 14.3005 133.274 13.0927 134.517 12.2946C135.779 11.475 137.483 11.0652 139.63 11.0652C140.682 11.0652 141.766 11.1838 142.881 11.4211C144.017 11.6368 144.891 11.928 145.501 12.2946V16.0154C144.891 15.6055 144.091 15.2712 143.102 15.0124C142.134 14.7536 141.187 14.6241 140.261 14.6241C139.398 14.6241 138.725 14.7104 138.241 14.883C137.778 15.0555 137.546 15.3791 137.546 15.8536C137.546 16.2634 137.767 16.5762 138.209 16.7919C138.672 17.0076 139.525 17.2772 140.766 17.6008L141.398 17.7625C142.723 18.1292 143.754 18.539 144.491 18.992C145.227 19.4233 145.743 19.9518 146.038 20.5773C146.353 21.1813 146.511 21.947 146.511 22.8744C146.511 24.2981 145.911 25.4411 144.712 26.3041C143.513 27.145 141.776 27.566 139.504 27.566Z" fill="#81818B"/>
<path d="M147.613 3.17078H152.379V13.33C153.095 12.575 153.905 12.0142 154.809 11.6476C155.715 11.2593 156.683 11.0652 157.714 11.0652C159.776 11.0652 161.312 11.6368 162.322 12.78C163.353 13.9016 163.869 15.4222 163.869 17.3419V27.0806H159.103V17.8919C159.103 15.886 158.198 14.883 156.388 14.883C155.588 14.883 154.842 15.0879 154.147 15.4977C153.452 15.886 152.863 16.4683 152.379 17.2448V27.0806H147.613V3.17078Z" fill="#81818B"/>
<path fill-rule="evenodd" clip-rule="evenodd" d="M24.6772 7.74858C24.6772 11.8583 21.4271 15.19 17.4175 15.19C13.4079 15.19 10.1575 11.8583 10.1575 7.74858C10.1575 3.63878 13.4079 0.307129 17.4175 0.307129C21.4271 0.307129 24.6772 3.63878 24.6772 7.74858ZM0.53023 14.6492C8.43977 14.1027 15.3332 20.1727 15.9753 28.2971C16.0418 29.1389 16.0386 29.97 15.9707 30.7848C8.06114 31.3313 1.16774 25.2612 0.52561 17.1368C0.459145 16.2949 0.462295 15.4637 0.53023 14.6492ZM21.0883 30.5002C29.0146 29.8419 34.9363 22.7764 34.4034 14.6691C33.6085 14.5995 32.7979 14.5962 31.9763 14.6644C24.05 15.3225 18.1282 22.3883 18.6614 30.4955C19.4561 30.5653 20.2669 30.5685 21.0883 30.5002Z" fill="#81818B"/>
</svg>
