<svg width="164" height="35" viewBox="0 0 164 35" fill="none" xmlns="http://www.w3.org/2000/svg">
<path fill-rule="evenodd" clip-rule="evenodd" d="M5.96872 8.97047C8.70907 5.46825 13.0973 3.1993 18.0432 3.1993C23.0182 3.1993 27.4287 5.49502 30.1658 9.03237C30.0493 9.14619 29.9432 9.26416 29.8471 9.38197C29.3458 9.99884 28.9686 10.7934 28.6664 11.6003C28.0578 13.2231 27.5936 15.3429 27.1638 17.3278L27.1256 17.5063C26.6968 19.4876 26.2982 21.3303 25.8162 22.6982C25.5997 23.3127 25.3944 23.7472 25.2123 24.0254C25.0223 23.7449 24.8068 23.3052 24.5786 22.6818C24.0632 21.2747 23.6296 19.3607 23.1701 17.317L23.1552 17.2501V17.25C22.7135 15.2871 22.2451 13.2043 21.661 11.61C21.3675 10.8091 21.0075 10.0225 20.5366 9.41131C20.0744 8.81155 19.3051 8.13467 18.1799 8.13467C17.0618 8.13467 16.289 8.8042 15.8201 9.39724C15.3401 10.0045 14.9659 10.7878 14.6576 11.5891C14.0367 13.2026 13.5291 15.3133 13.0567 17.301L13.008 17.5063C12.5402 19.4753 12.1029 21.3162 11.6065 22.6867C11.4171 23.21 11.2383 23.6083 11.0764 23.8927C10.9182 23.6096 10.7439 23.214 10.5595 22.6951C10.0834 21.3538 9.66619 19.5644 9.21816 17.6426L9.13972 17.3063C8.67552 15.3174 8.17189 13.2029 7.5422 11.5843C7.22935 10.7801 6.84668 9.9928 6.3515 9.38275C6.23936 9.24468 6.11194 9.1045 5.96872 8.97047ZM4.3102 11.6596C4.44071 11.9045 4.57879 12.208 4.72154 12.575C5.26659 13.976 5.72833 15.8877 6.20382 17.9249L6.29638 18.3219C6.72929 20.1807 7.17964 22.1144 7.7101 23.6083C7.99223 24.4028 8.33296 25.181 8.77112 25.7858C9.1855 26.3578 9.9289 27.0967 11.072 27.0967C12.2118 27.0967 12.9569 26.3614 13.3741 25.792C13.8161 25.1886 14.1623 24.4112 14.4502 23.6162C15.0019 22.0927 15.4717 20.1138 15.9214 18.2199V18.2198L15.9901 17.9303C16.4746 15.8918 16.9409 13.9763 17.482 12.5702C17.7326 11.9187 17.9673 11.4649 18.1716 11.1833C18.3652 11.4625 18.5864 11.9091 18.821 12.5493C19.3365 13.9566 19.7697 15.8705 20.2293 17.9142L20.2444 17.9811C20.6859 19.9441 21.1543 22.027 21.7384 23.6211C22.0319 24.4223 22.3919 25.2089 22.8629 25.8199C23.3251 26.4198 24.0943 27.0967 25.2193 27.0967C26.3503 27.0967 27.1168 26.4136 27.5735 25.8084C28.0373 25.1943 28.3861 24.405 28.6678 23.6052C29.2093 22.0687 29.6398 20.0752 30.0503 18.1788V18.1787L30.1091 17.9034C30.5512 15.8622 30.9754 13.9558 31.4993 12.559C31.6127 12.2551 31.7245 11.996 31.8311 11.7784C32.6338 13.5265 33.079 15.4567 33.079 17.4857C33.079 25.3757 26.3475 31.7721 18.0432 31.7721C9.73906 31.7721 3.0072 25.3757 3.0072 17.4857C3.0072 15.4106 3.47282 13.4388 4.3102 11.6596ZM18.0432 0.342041C8.07823 0.342041 0 8.01749 0 17.4857C0 26.9538 8.07823 34.6292 18.0432 34.6292C28.0084 34.6292 36.0862 26.9538 36.0862 17.4857C36.0862 8.01749 28.0084 0.342041 18.0432 0.342041ZM18.387 10.9442C18.387 10.9445 18.3835 10.9472 18.3764 10.9511C18.3834 10.9458 18.387 10.9438 18.387 10.9442ZM17.9713 10.9461C17.9643 10.9421 17.9609 10.9393 17.9609 10.9389C17.9609 10.9385 17.9644 10.9406 17.9713 10.9461ZM24.9907 24.2966C24.9907 24.2966 24.9939 24.2935 25.0004 24.2896C24.9939 24.2949 24.9907 24.2971 24.9907 24.2966ZM25.4279 24.2851C25.4349 24.2891 25.4386 24.2918 25.4386 24.2922C25.4386 24.2926 25.4349 24.2904 25.4279 24.2851ZM10.7638 24.3223C10.7638 24.3218 10.7681 24.3178 10.7768 24.3121C10.7682 24.3196 10.7638 24.3227 10.7638 24.3223ZM11.3728 24.3148C11.3814 24.3205 11.3857 24.3245 11.3857 24.3249C11.3857 24.3254 11.3813 24.3227 11.3728 24.3148Z" fill="#81818B"/>
<path d="M46.0492 27.6351L41.6738 13.4144H45.5063L48.1014 23.6498L51.1186 13.4144H55.4036L58.4213 23.6498L61.0463 13.4144H64.8788L60.473 27.6351H56.4599L53.2611 16.9982L50.0628 27.6351H46.0492Z" fill="#81818B"/>
<path d="M70.5021 27.9793C69.2148 27.9793 68.1585 27.7877 67.3338 27.4055C66.5095 27.0042 65.8958 26.4786 65.4931 25.8287C65.091 25.1788 64.8899 24.4621 64.8899 23.6785C64.8899 22.3597 65.4327 21.2893 66.519 20.4674C67.6052 19.6455 69.2353 19.2346 71.4078 19.2346H75.2098V18.8905C75.2098 17.9157 74.9179 17.199 74.3346 16.7402C73.7514 16.2815 73.0269 16.0522 72.1622 16.0522C71.3773 16.0522 70.6932 16.2337 70.11 16.5969C69.5267 16.9409 69.1644 17.457 69.0237 18.1451H65.2516C65.3524 17.113 65.7147 16.2146 66.3378 15.45C66.982 14.6855 67.8068 14.1025 68.8122 13.7012C69.8186 13.2807 70.9447 13.0704 72.1921 13.0704C74.3247 13.0704 76.0041 13.5769 77.2316 14.5899C78.4585 15.603 79.0722 17.0366 79.0722 18.8905V27.6351H75.7826L75.4209 25.3416C74.9783 26.1061 74.3546 26.7366 73.5503 27.2338C72.7654 27.7306 71.7495 27.9793 70.5021 27.9793ZM71.3773 25.112C72.484 25.112 73.3387 24.7678 73.9419 24.0798C74.5656 23.3919 74.9583 22.5411 75.1195 21.5282H71.8299C70.804 21.5282 70.0701 21.7098 69.627 22.0729C69.1849 22.4168 68.9634 22.8472 68.9634 23.3631C68.9634 23.9175 69.1849 24.3475 69.627 24.6532C70.0701 24.9589 70.6528 25.112 71.3773 25.112Z" fill="#81818B"/>
<path d="M85.1523 27.6351L79.6608 13.4144H83.7038L87.5058 24.1661L91.3079 13.4144H95.3514L89.8295 27.6351H85.1523Z" fill="#81818B"/>
<path d="M103.116 27.9793C101.607 27.9793 100.27 27.6732 99.1025 27.0617C97.9359 26.4498 97.0209 25.5898 96.3567 24.4811C95.6926 23.3728 95.3613 22.092 95.3613 20.6394C95.3613 19.1677 95.6832 17.8584 96.3263 16.7116C96.9904 15.5648 97.8955 14.676 99.0426 14.0452C100.209 13.3954 101.577 13.0704 103.146 13.0704C104.614 13.0704 105.912 13.3762 107.039 13.9879C108.165 14.5995 109.041 15.4405 109.664 16.5109C110.308 17.5621 110.63 18.7376 110.63 20.0373C110.63 20.2476 110.619 20.4674 110.599 20.6967C110.599 20.9262 110.589 21.165 110.569 21.4135H99.1933C99.2736 22.5221 99.6763 23.3919 100.4 24.0228C101.144 24.6532 102.04 24.9687 103.086 24.9687C103.87 24.9687 104.524 24.8063 105.047 24.4811C105.59 24.1373 105.993 23.6976 106.254 23.1622H110.177C109.895 24.0608 109.422 24.8828 108.759 25.6283C108.115 26.3543 107.31 26.9277 106.344 27.3484C105.399 27.7687 104.323 27.9793 103.116 27.9793ZM103.146 16.0522C102.201 16.0522 101.366 16.3102 100.641 16.8262C99.9173 17.3232 99.4548 18.0878 99.2532 19.1199H106.707C106.646 18.1833 106.284 17.4379 105.62 16.8836C104.956 16.3293 104.132 16.0522 103.146 16.0522Z" fill="#81818B"/>
<path d="M112.671 27.635V6.99219H116.534V27.635H112.671Z" fill="#81818B"/>
<path d="M126.545 27.9793C125.036 27.9793 123.699 27.6732 122.532 27.0617C121.365 26.4498 120.45 25.5898 119.786 24.4811C119.122 23.3728 118.791 22.092 118.791 20.6394C118.791 19.1677 119.112 17.8584 119.755 16.7116C120.42 15.5648 121.325 14.676 122.472 14.0452C123.638 13.3954 125.006 13.0704 126.575 13.0704C128.044 13.0704 129.341 13.3762 130.468 13.9879C131.594 14.5995 132.47 15.4405 133.093 16.5109C133.737 17.5621 134.059 18.7376 134.059 20.0373C134.059 20.2476 134.049 20.4674 134.029 20.6967C134.029 20.9262 134.018 21.165 133.998 21.4135H122.622C122.703 22.5221 123.105 23.3919 123.829 24.0228C124.573 24.6532 125.469 24.9687 126.515 24.9687C127.299 24.9687 127.953 24.8063 128.476 24.4811C129.02 24.1373 129.422 23.6976 129.683 23.1622H133.607C133.325 24.0608 132.852 24.8828 132.188 25.6283C131.544 26.3543 130.74 26.9277 129.774 27.3484C128.829 27.7687 127.752 27.9793 126.545 27.9793ZM126.575 16.0522C125.63 16.0522 124.795 16.3102 124.07 16.8262C123.346 17.3232 122.884 18.0878 122.682 19.1199H130.136C130.075 18.1833 129.714 17.4379 129.05 16.8836C128.385 16.3293 127.561 16.0522 126.575 16.0522Z" fill="#81818B"/>
<path d="M142.286 27.9793C140.959 27.9793 139.792 27.7784 138.786 27.3772C137.78 26.9564 136.975 26.3831 136.372 25.6566C135.769 24.9306 135.406 24.0896 135.286 23.134H139.178C139.299 23.6878 139.621 24.1661 140.144 24.5674C140.687 24.9496 141.381 25.1408 142.226 25.1408C143.071 25.1408 143.684 24.9784 144.066 24.6532C144.469 24.3285 144.67 23.9555 144.67 23.5352C144.67 22.9234 144.389 22.5124 143.825 22.3022C143.262 22.0729 142.477 21.8532 141.471 21.6429C140.828 21.5091 140.174 21.3466 139.51 21.1555C138.846 20.9644 138.233 20.7254 137.67 20.4388C137.126 20.1329 136.684 19.7506 136.341 19.2919C136 18.814 135.829 18.2311 135.829 17.543C135.829 16.2815 136.352 15.2207 137.398 14.3606C138.464 13.5005 139.952 13.0704 141.864 13.0704C143.634 13.0704 145.042 13.4622 146.088 14.2459C147.154 15.0296 147.788 16.1095 147.989 17.4857H144.338C144.117 16.4344 143.282 15.9088 141.834 15.9088C141.109 15.9088 140.546 16.0426 140.144 16.3102C139.762 16.5778 139.571 16.9122 139.571 17.3136C139.571 17.7342 139.862 18.0686 140.446 18.3171C141.029 18.5656 141.803 18.7949 142.769 19.0052C143.815 19.2346 144.77 19.4926 145.635 19.7793C146.521 20.0469 147.225 20.4579 147.748 21.0122C148.271 21.5473 148.532 22.3212 148.532 23.3343C148.553 24.2139 148.311 25.0067 147.808 25.7141C147.305 26.4211 146.581 26.9754 145.635 27.3772C144.69 27.7784 143.574 27.9793 142.286 27.9793Z" fill="#81818B"/>
<path d="M156.933 27.9793C155.605 27.9793 154.438 27.7784 153.433 27.3772C152.427 26.9564 151.622 26.3831 151.019 25.6566C150.415 24.9306 150.053 24.0896 149.932 23.134H153.825C153.946 23.6878 154.267 24.1661 154.79 24.5674C155.334 24.9496 156.027 25.1408 156.872 25.1408C157.717 25.1408 158.331 24.9784 158.713 24.6532C159.115 24.3285 159.317 23.9555 159.317 23.5352C159.317 22.9234 159.035 22.5124 158.472 22.3022C157.909 22.0729 157.124 21.8532 156.118 21.6429C155.474 21.5091 154.821 21.3466 154.157 21.1555C153.493 20.9644 152.879 20.7254 152.316 20.4388C151.773 20.1329 151.33 19.7506 150.988 19.2919C150.646 18.814 150.475 18.2311 150.475 17.543C150.475 16.2815 150.999 15.2207 152.045 14.3606C153.111 13.5005 154.599 13.0704 156.51 13.0704C158.281 13.0704 159.689 13.4622 160.735 14.2459C161.801 15.0296 162.434 16.1095 162.636 17.4857H158.985C158.764 16.4344 157.929 15.9088 156.48 15.9088C155.756 15.9088 155.192 16.0426 154.79 16.3102C154.408 16.5778 154.217 16.9122 154.217 17.3136C154.217 17.7342 154.508 18.0686 155.092 18.3171C155.675 18.5656 156.45 18.7949 157.415 19.0052C158.462 19.2346 159.417 19.4926 160.282 19.7793C161.167 20.0469 161.872 20.4579 162.394 21.0122C162.917 21.5473 163.179 22.3212 163.179 23.3343C163.199 24.2139 162.958 25.0067 162.455 25.7141C161.952 26.4211 161.228 26.9754 160.282 27.3772C159.337 27.7784 158.22 27.9793 156.933 27.9793Z" fill="#81818B"/>
<path fill-rule="evenodd" clip-rule="evenodd" d="M5.96872 8.70484C8.70907 5.20262 13.0973 2.93368 18.0432 2.93368C23.0182 2.93368 27.4287 5.2294 30.1658 8.76674C30.0493 8.88056 29.9432 8.99853 29.8471 9.11634C29.3458 9.73322 28.9686 10.5278 28.6664 11.3347C28.0578 12.9575 27.5936 15.0772 27.1638 17.0622L27.1256 17.2407C26.6968 19.222 26.2982 21.0647 25.8162 22.4325C25.5997 23.0471 25.3944 23.4815 25.2123 23.7598C25.0223 23.4793 24.8068 23.0396 24.5786 22.4162C24.0632 21.0091 23.6296 19.0951 23.1701 17.0514L23.1552 16.9845V16.9844C22.7135 15.0214 22.2451 12.9387 21.661 11.3443C21.3675 10.5435 21.0075 9.75684 20.5366 9.14569C20.0744 8.54593 19.3051 7.86904 18.1799 7.86904C17.0618 7.86904 16.289 8.53858 15.8201 9.13162C15.3401 9.73883 14.9659 10.5222 14.6576 11.3234C14.0367 12.937 13.5291 15.0476 13.0567 17.0353L13.008 17.2407C12.5402 19.2097 12.1029 21.0505 11.6065 22.421C11.4171 22.9444 11.2383 23.3426 11.0764 23.6271C10.9182 23.3439 10.7439 22.9484 10.5595 22.4294C10.0834 21.0881 9.66619 19.2988 9.21816 17.377L9.13972 17.0406C8.67552 15.0517 8.17189 12.9373 7.5422 11.3187C7.22935 10.5145 6.84668 9.72718 6.3515 9.11713C6.23936 8.97905 6.11194 8.83888 5.96872 8.70484ZM4.3102 11.394C4.44071 11.6389 4.57879 11.9424 4.72154 12.3093C5.26659 13.7104 5.72833 15.622 6.20382 17.6593L6.29638 18.0562C6.72929 19.9151 7.17964 21.8487 7.7101 23.3426C7.99223 24.1372 8.33296 24.9154 8.77112 25.5202C9.1855 26.0922 9.9289 26.8311 11.072 26.8311C12.2118 26.8311 12.9569 26.0958 13.3741 25.5264C13.8161 24.9229 14.1623 24.1456 14.4502 23.3506C15.0019 21.8271 15.4717 19.8481 15.9214 17.9542V17.9541L15.9901 17.6647C16.4746 15.6262 16.9409 13.7107 17.482 12.3046C17.7326 11.6531 17.9673 11.1993 18.1716 10.9177C18.3652 11.1969 18.5864 11.6435 18.821 12.2837C19.3365 13.6909 19.7697 15.6049 20.2293 17.6485L20.2444 17.7155C20.6859 19.6785 21.1543 21.7613 21.7384 23.3554C22.0319 24.1566 22.3919 24.9433 22.8629 25.5543C23.3251 26.1542 24.0943 26.8311 25.2193 26.8311C26.3503 26.8311 27.1168 26.148 27.5735 25.5428C28.0373 24.9287 28.3861 24.1394 28.6678 23.3395C29.2093 21.8031 29.6398 19.8096 30.0503 17.9131V17.9131L30.1091 17.6378C30.5512 15.5966 30.9754 13.6901 31.4993 12.2934C31.6127 11.9895 31.7245 11.7304 31.8311 11.5128C32.6338 13.2608 33.079 15.1911 33.079 17.22C33.079 25.11 26.3475 31.5065 18.0432 31.5065C9.73906 31.5065 3.0072 25.11 3.0072 17.22C3.0072 15.145 3.47282 13.1732 4.3102 11.394ZM18.0432 0.076416C8.07823 0.076416 0 7.75187 0 17.22C0 26.6881 8.07823 34.3635 18.0432 34.3635C28.0084 34.3635 36.0862 26.6881 36.0862 17.22C36.0862 7.75187 28.0084 0.076416 18.0432 0.076416ZM18.387 10.6785C18.387 10.6789 18.3835 10.6816 18.3764 10.6855C18.3834 10.6802 18.387 10.6782 18.387 10.6785ZM17.9713 10.6805C17.9643 10.6764 17.9609 10.6736 17.9609 10.6733C17.9609 10.6729 17.9644 10.675 17.9713 10.6805ZM24.9907 24.031C24.9907 24.031 24.9939 24.0279 25.0004 24.0239C24.9939 24.0292 24.9907 24.0314 24.9907 24.031ZM25.4279 24.0195C25.4349 24.0235 25.4386 24.0261 25.4386 24.0266C25.4386 24.027 25.4349 24.0248 25.4279 24.0195ZM10.7638 24.0567C10.7638 24.0562 10.7681 24.0522 10.7768 24.0465C10.7682 24.054 10.7638 24.0571 10.7638 24.0567ZM11.3728 24.0491C11.3814 24.0549 11.3857 24.0589 11.3857 24.0593C11.3857 24.0598 11.3813 24.0571 11.3728 24.0491Z" fill="#81818B"/>
<path d="M46.0492 27.3694L41.6738 13.1488H45.5063L48.1014 23.3842L51.1186 13.1488H55.4036L58.4213 23.3842L61.0463 13.1488H64.8788L60.473 27.3694H56.4599L53.2611 16.7326L50.0628 27.3694H46.0492Z" fill="#81818B"/>
<path d="M70.5021 27.7137C69.2148 27.7137 68.1585 27.5221 67.3338 27.1398C66.5095 26.7386 65.8958 26.213 65.4931 25.5631C65.091 24.9131 64.8899 24.1965 64.8899 23.4129C64.8899 22.0941 65.4327 21.0237 66.519 20.2018C67.6052 19.3799 69.2353 18.9689 71.4078 18.9689H75.2098V18.6249C75.2098 17.6501 74.9179 16.9334 74.3346 16.4746C73.7514 16.0159 73.0269 15.7865 72.1622 15.7865C71.3773 15.7865 70.6932 15.9681 70.11 16.3313C69.5267 16.6753 69.1644 17.1914 69.0237 17.8795H65.2516C65.3524 16.8474 65.7147 15.949 66.3378 15.1844C66.982 14.4199 67.8068 13.8369 68.8122 13.4355C69.8186 13.0151 70.9447 12.8048 72.1921 12.8048C74.3247 12.8048 76.0041 13.3113 77.2316 14.3243C78.4585 15.3374 79.0722 16.7709 79.0722 18.6249V27.3695H75.7826L75.4209 25.076C74.9783 25.8405 74.3546 26.4709 73.5503 26.9682C72.7654 27.465 71.7495 27.7137 70.5021 27.7137ZM71.3773 24.8464C72.484 24.8464 73.3387 24.5022 73.9419 23.8142C74.5656 23.1263 74.9583 22.2755 75.1195 21.2626H71.8299C70.804 21.2626 70.0701 21.4442 69.627 21.8073C69.1849 22.1512 68.9634 22.5816 68.9634 23.0975C68.9634 23.6518 69.1849 24.0819 69.627 24.3876C70.0701 24.6933 70.6528 24.8464 71.3773 24.8464Z" fill="#81818B"/>
<path d="M85.1523 27.3694L79.6608 13.1488H83.7038L87.5058 23.9004L91.3079 13.1488H95.3514L89.8295 27.3694H85.1523Z" fill="#81818B"/>
<path d="M103.116 27.7137C101.607 27.7137 100.27 27.4075 99.1025 26.7961C97.9359 26.1842 97.0209 25.3242 96.3567 24.2155C95.6926 23.1072 95.3613 21.8264 95.3613 20.3738C95.3613 18.9021 95.6832 17.5928 96.3263 16.4459C96.9904 15.2991 97.8955 14.4104 99.0426 13.7796C100.209 13.1297 101.577 12.8048 103.146 12.8048C104.614 12.8048 105.912 13.1106 107.039 13.7222C108.165 14.3339 109.041 15.1749 109.664 16.2452C110.308 17.2965 110.63 18.472 110.63 19.7717C110.63 19.982 110.619 20.2018 110.599 20.4311C110.599 20.6605 110.589 20.8994 110.569 21.1479H99.1933C99.2736 22.2564 99.6763 23.1263 100.4 23.7572C101.144 24.3876 102.04 24.703 103.086 24.703C103.87 24.703 104.524 24.5407 105.047 24.2155C105.59 23.8717 105.993 23.432 106.254 22.8966H110.177C109.895 23.7952 109.422 24.6172 108.759 25.3627C108.115 26.0887 107.31 26.662 106.344 27.0828C105.399 27.5031 104.323 27.7137 103.116 27.7137ZM103.146 15.7865C102.201 15.7865 101.366 16.0446 100.641 16.5606C99.9173 17.0576 99.4548 17.8221 99.2532 18.8543H106.707C106.646 17.9177 106.284 17.1722 105.62 16.6179C104.956 16.0637 104.132 15.7865 103.146 15.7865Z" fill="#81818B"/>
<path d="M112.671 27.3694V6.72656H116.534V27.3694H112.671Z" fill="#81818B"/>
<path d="M126.545 27.7137C125.036 27.7137 123.699 27.4075 122.532 26.7961C121.365 26.1842 120.45 25.3242 119.786 24.2155C119.122 23.1072 118.791 21.8264 118.791 20.3738C118.791 18.9021 119.112 17.5928 119.755 16.4459C120.42 15.2991 121.325 14.4104 122.472 13.7796C123.638 13.1297 125.006 12.8048 126.575 12.8048C128.044 12.8048 129.341 13.1106 130.468 13.7222C131.594 14.3339 132.47 15.1749 133.093 16.2452C133.737 17.2965 134.059 18.472 134.059 19.7717C134.059 19.982 134.049 20.2018 134.029 20.4311C134.029 20.6605 134.018 20.8994 133.998 21.1479H122.622C122.703 22.2564 123.105 23.1263 123.829 23.7572C124.573 24.3876 125.469 24.703 126.515 24.703C127.299 24.703 127.953 24.5407 128.476 24.2155C129.02 23.8717 129.422 23.432 129.683 22.8966H133.607C133.325 23.7952 132.852 24.6172 132.188 25.3627C131.544 26.0887 130.74 26.662 129.774 27.0828C128.829 27.5031 127.752 27.7137 126.545 27.7137ZM126.575 15.7865C125.63 15.7865 124.795 16.0446 124.07 16.5606C123.346 17.0576 122.884 17.8221 122.682 18.8543H130.136C130.075 17.9177 129.714 17.1722 129.05 16.6179C128.385 16.0637 127.561 15.7865 126.575 15.7865Z" fill="#81818B"/>
<path d="M142.286 27.7137C140.959 27.7137 139.792 27.5128 138.786 27.1115C137.78 26.6908 136.975 26.1174 136.372 25.391C135.769 24.665 135.406 23.8239 135.286 22.8683H139.178C139.299 23.4222 139.621 23.9005 140.144 24.3017C140.687 24.684 141.381 24.8751 142.226 24.8751C143.071 24.8751 143.684 24.7128 144.066 24.3876C144.469 24.0629 144.67 23.6899 144.67 23.2696C144.67 22.6578 144.389 22.2467 143.825 22.0366C143.262 21.8073 142.477 21.5875 141.471 21.3773C140.828 21.2435 140.174 21.081 139.51 20.8899C138.846 20.6988 138.233 20.4598 137.67 20.1731C137.126 19.8673 136.684 19.485 136.341 19.0263C136 18.5484 135.829 17.9655 135.829 17.2774C135.829 16.0159 136.352 14.9551 137.398 14.095C138.464 13.2348 139.952 12.8048 141.864 12.8048C143.634 12.8048 145.042 13.1966 146.088 13.9803C147.154 14.764 147.788 15.8439 147.989 17.2201H144.338C144.117 16.1688 143.282 15.6432 141.834 15.6432C141.109 15.6432 140.546 15.777 140.144 16.0446C139.762 16.3122 139.571 16.6466 139.571 17.048C139.571 17.4685 139.862 17.803 140.446 18.0515C141.029 18.3 141.803 18.5293 142.769 18.7396C143.815 18.9689 144.77 19.227 145.635 19.5137C146.521 19.7813 147.225 20.1922 147.748 20.7465C148.271 21.2817 148.532 22.0556 148.532 23.0687C148.553 23.9482 148.311 24.7411 147.808 25.4485C147.305 26.1555 146.581 26.7098 145.635 27.1115C144.69 27.5128 143.574 27.7137 142.286 27.7137Z" fill="#81818B"/>
<path d="M156.933 27.7137C155.605 27.7137 154.438 27.5128 153.433 27.1115C152.427 26.6908 151.622 26.1174 151.019 25.391C150.415 24.665 150.053 23.8239 149.932 22.8683H153.825C153.946 23.4222 154.267 23.9005 154.79 24.3017C155.334 24.684 156.027 24.8751 156.872 24.8751C157.717 24.8751 158.331 24.7128 158.713 24.3876C159.115 24.0629 159.317 23.6899 159.317 23.2696C159.317 22.6578 159.035 22.2467 158.472 22.0366C157.909 21.8073 157.124 21.5875 156.118 21.3773C155.474 21.2435 154.821 21.081 154.157 20.8899C153.493 20.6988 152.879 20.4598 152.316 20.1731C151.773 19.8673 151.33 19.485 150.988 19.0263C150.646 18.5484 150.475 17.9655 150.475 17.2774C150.475 16.0159 150.999 14.9551 152.045 14.095C153.111 13.2348 154.599 12.8048 156.51 12.8048C158.281 12.8048 159.689 13.1966 160.735 13.9803C161.801 14.764 162.434 15.8439 162.636 17.2201H158.985C158.764 16.1688 157.929 15.6432 156.48 15.6432C155.756 15.6432 155.192 15.777 154.79 16.0446C154.408 16.3122 154.217 16.6466 154.217 17.048C154.217 17.4685 154.508 17.803 155.092 18.0515C155.675 18.3 156.45 18.5293 157.415 18.7396C158.462 18.9689 159.417 19.227 160.282 19.5137C161.167 19.7813 161.872 20.1922 162.394 20.7465C162.917 21.2817 163.179 22.0556 163.179 23.0687C163.199 23.9482 162.958 24.7411 162.455 25.4485C161.952 26.1555 161.228 26.7098 160.282 27.1115C159.337 27.5128 158.22 27.7137 156.933 27.7137Z" fill="#81818B"/>
</svg>
