<svg width="160" height="31" viewBox="0 0 160 31" fill="none" xmlns="http://www.w3.org/2000/svg">
<path d="M4.87562 4.29559C7.0298 2.33372 9.9549 1.18859 12.9195 1.04615C13.9342 1.04615 14.9518 1.05193 15.9665 1.04321C15.9147 2.08088 15.9665 3.12137 15.936 4.15898C15.7928 6.47838 14.8939 8.74544 13.3796 10.5649C11.4113 13.0122 8.40095 14.6543 5.20469 15.0787C3.80919 15.2938 2.39232 15.1572 0.987735 15.195C1.0121 14.0527 0.935918 12.9076 1.03037 11.7682C1.30463 8.9431 2.70317 6.23714 4.87562 4.29559Z" fill="#81818B"/>
<path d="M16.9061 1.04321C17.9939 1.05487 19.0816 1.03744 20.1724 1.04904C22.8872 1.23211 25.5655 2.22614 27.6098 3.94977C29.8645 5.79536 31.4096 8.43448 31.8054 11.2538C31.9792 12.5617 31.8695 13.8841 31.9367 15.1978C30.9859 15.195 30.0383 15.1921 29.0875 15.1978C26.7507 15.1368 24.4533 14.416 22.4972 13.2011C21.5953 12.5849 20.669 11.9601 19.9926 11.1055C18.5088 9.52438 17.5002 7.53925 17.1194 5.4466C16.8329 3.99329 16.9487 2.51101 16.9061 1.04321Z" fill="#81818B"/>
<path d="M0.989776 16.0291C1.95567 16.0813 2.92461 15.9854 3.88741 16.0872C8.00992 16.1714 12.0106 18.3804 14.1464 21.7432C15.3714 23.6266 16.0295 25.8589 15.9442 28.0763C15.9411 28.8035 15.9533 29.5269 15.932 30.2509C14.4024 30.2068 12.8576 30.326 11.3432 30.044C7.97947 29.5038 4.88685 27.5939 3.0251 24.8677C1.61437 22.8854 0.910553 20.4644 0.983686 18.0723C0.983686 17.3892 0.983686 16.7091 0.989776 16.0291Z" fill="#81818B"/>
<path d="M26.7884 16.337C28.446 15.9853 30.1548 16.0434 31.8401 16.0434L31.9136 16.1132C31.8768 17.6333 32.0018 19.1708 31.6821 20.6735C31.0085 24.045 28.6686 27.0559 25.5209 28.7097C23.5617 29.7506 21.3131 30.2619 19.0736 30.2388C18.3576 30.242 17.6385 30.2273 16.9225 30.2472C16.9225 28.9888 16.8676 27.7248 17.0169 26.4717C17.3643 23.4404 19.0827 20.6182 21.5538 18.7116C23.0833 17.5606 24.8811 16.7265 26.7884 16.337Z" fill="#81818B"/>
<path d="M44.4217 24.6211C44.4217 25.1328 44.2359 25.5657 43.8652 25.92C43.514 26.2547 43.0704 26.422 42.5344 26.422C42.0183 26.422 41.5852 26.2547 41.2345 25.92C40.8838 25.5657 40.7084 25.1328 40.7084 24.6211V6.37753C40.7084 5.86581 40.8838 5.44272 41.2345 5.10819C41.6056 4.75392 42.0598 4.57678 42.5963 4.57678C43.1323 4.57678 43.5654 4.75392 43.8957 5.10819C44.2464 5.44272 44.4217 5.86581 44.4217 6.37753V24.6211Z" fill="#81818B"/>
<path d="M59.3275 10.6284C59.8636 10.6284 60.3072 10.8055 60.6584 11.1598C61.0086 11.4943 61.1839 11.9174 61.1839 12.4291V19.9273C61.1839 22.0134 60.5754 23.6665 59.3585 24.8867C58.141 26.1069 56.3875 26.7168 54.0969 26.7168C51.8074 26.7168 50.0534 26.1069 48.8365 24.8867C47.64 23.6665 47.0415 22.0134 47.0415 19.9273V12.4291C47.0415 11.9174 47.2168 11.4943 47.5675 11.1598C47.9182 10.8055 48.3618 10.6284 48.8984 10.6284C49.4349 10.6284 49.878 10.8055 50.2287 11.1598C50.58 11.4943 50.7553 11.9174 50.7553 12.4291V19.9273C50.7553 21.1278 51.0341 22.0232 51.5906 22.6136C52.1476 23.1844 52.9834 23.4697 54.0969 23.4697C55.2325 23.4697 56.0778 23.1844 56.6353 22.6136C57.1918 22.0232 57.4706 21.1278 57.4706 19.9273V12.4291C57.4706 11.9174 57.646 11.4943 57.9967 11.1598C58.3474 10.8055 58.791 10.6284 59.3275 10.6284Z" fill="#81818B"/>
<path d="M72.3533 10.3333C74.0039 10.3333 75.2208 10.717 76.0052 11.4845C76.789 12.2324 77.3051 13.2065 77.5524 14.407L77.0263 14.1413L77.2741 13.669C77.5214 13.2163 77.9031 12.7342 78.4191 12.2225C78.9347 11.6912 79.5537 11.2484 80.2756 10.8941C81.0184 10.5202 81.8437 10.3333 82.7514 10.3333C84.2372 10.3333 85.3612 10.6383 86.1246 11.2483C86.9089 11.8584 87.4449 12.6752 87.7337 13.6986C88.023 14.7022 88.1674 15.824 88.1674 17.0639V24.6211C88.1674 25.1328 87.992 25.5656 87.6408 25.92C87.2901 26.2547 86.847 26.422 86.3104 26.422C85.7744 26.422 85.3302 26.2547 84.9795 25.92C84.6288 25.5656 84.4535 25.1328 84.4535 24.6211V17.0639C84.4535 16.4144 84.3711 15.8339 84.2062 15.3221C84.0409 14.7908 83.7416 14.3677 83.3085 14.0528C82.8753 13.7379 82.2564 13.5804 81.4521 13.5804C80.6677 13.5804 79.9973 13.7379 79.4403 14.0528C78.8827 14.3677 78.4601 14.7908 78.1713 15.3221C77.9031 15.8339 77.7687 16.4144 77.7687 17.0639V24.6211C77.7687 25.1328 77.5933 25.5656 77.2432 25.92C76.8925 26.2547 76.4483 26.422 75.9123 26.422C75.3757 26.422 74.9321 26.2547 74.5819 25.92C74.2307 25.5656 74.0553 25.1328 74.0553 24.6211V17.0639C74.0553 16.4144 73.9729 15.8339 73.8075 15.3221C73.6427 14.7908 73.3434 14.3677 72.9103 14.0528C72.4772 13.7379 71.8577 13.5804 71.0534 13.5804C70.2696 13.5804 69.5991 13.7379 69.0416 14.0528C68.4851 14.3677 68.0619 14.7908 67.7732 15.3221C67.5049 15.8339 67.371 16.4144 67.371 17.0639V24.6211C67.371 25.1328 67.1957 25.5656 66.845 25.92C66.4938 26.2547 66.0507 26.422 65.5141 26.422C64.9776 26.422 64.5345 26.2547 64.1832 25.92C63.8325 25.5656 63.6572 25.1328 63.6572 24.6211V12.4292C63.6572 11.9175 63.8325 11.4943 64.1832 11.1598C64.5345 10.8055 64.9776 10.6285 65.5141 10.6285C66.0507 10.6285 66.4938 10.8055 66.845 11.1598C67.1957 11.4943 67.371 11.9175 67.371 12.4292V13.6986L66.9064 13.61C67.0923 13.2754 67.3506 12.9211 67.6803 12.5472C68.0105 12.1536 68.4126 11.7895 68.8872 11.455C69.3618 11.1204 69.8879 10.8547 70.4654 10.6579C71.0434 10.4415 71.6729 10.3333 72.3533 10.3333Z" fill="#81818B"/>
<path d="M94.1361 24.6211C94.1361 25.1328 93.9607 25.5656 93.6095 25.92C93.2593 26.2547 92.8157 26.422 92.2791 26.422C91.7431 26.422 91.299 26.2547 90.9483 25.92C90.5981 25.5656 90.4227 25.1328 90.4227 24.6211V12.4292C90.4227 11.9175 90.5981 11.4943 90.9483 11.1598C91.299 10.8055 91.7431 10.6285 92.2791 10.6285C92.8157 10.6285 93.2593 10.8055 93.6095 11.1598C93.9607 11.4943 94.1361 11.9175 94.1361 12.4292V24.6211ZM92.2482 8.70959C91.5468 8.70959 91.0517 8.60139 90.7624 8.38488C90.4742 8.16842 90.3298 7.78464 90.3298 7.2336V6.67269C90.3298 6.10202 90.4847 5.71819 90.7934 5.52142C91.1236 5.30491 91.6192 5.19666 92.2791 5.19666C93.0015 5.19666 93.5071 5.30491 93.7953 5.52142C94.0846 5.73788 94.229 6.12165 94.229 6.67269V7.2336C94.229 7.80433 94.0741 8.19792 93.7644 8.41438C93.4557 8.6112 92.9496 8.70959 92.2482 8.70959Z" fill="#81818B"/>
<path d="M105.256 10.3333C106.783 10.3333 107.938 10.6383 108.722 11.2483C109.527 11.8584 110.073 12.6752 110.362 13.6986C110.672 14.7022 110.826 15.824 110.826 17.0639V24.6211C110.826 25.1328 110.651 25.5656 110.3 25.92C109.95 26.2547 109.506 26.422 108.969 26.422C108.433 26.422 107.99 26.2547 107.639 25.92C107.288 25.5656 107.112 25.1328 107.112 24.6211V17.0639C107.112 16.4144 107.02 15.8339 106.835 15.3221C106.669 14.7908 106.36 14.3677 105.906 14.0528C105.452 13.7379 104.802 13.5804 103.956 13.5804C103.131 13.5804 102.429 13.7379 101.852 14.0528C101.295 14.3677 100.862 14.7908 100.552 15.3221C100.263 15.8339 100.118 16.4144 100.118 17.0639V24.6211C100.118 25.1328 99.9436 25.5656 99.5929 25.92C99.2422 26.2547 98.7981 26.422 98.262 26.422C97.7255 26.422 97.2819 26.2547 96.9317 25.92C96.5805 25.5656 96.4051 25.1328 96.4051 24.6211V12.4292C96.4051 11.9175 96.5805 11.4943 96.9317 11.1598C97.2819 10.8055 97.7255 10.6285 98.262 10.6285C98.7981 10.6285 99.2422 10.8055 99.5929 11.1598C99.9436 11.4943 100.118 11.9175 100.118 12.4292V13.6986L99.6549 13.61C99.8407 13.2754 100.108 12.9211 100.459 12.5472C100.81 12.1536 101.223 11.7895 101.697 11.455C102.172 11.1204 102.708 10.8547 103.306 10.6579C103.905 10.4415 104.555 10.3333 105.256 10.3333Z" fill="#81818B"/>
<path d="M129.2 18.5398C129.2 20.1536 128.818 21.5805 128.055 22.8203C127.312 24.0405 126.301 24.995 125.022 25.6837C123.763 26.3728 122.35 26.7168 120.782 26.7168C119.214 26.7168 117.79 26.3728 116.512 25.6837C115.253 24.995 114.242 24.0405 113.479 22.8203C112.736 21.5805 112.365 20.1536 112.365 18.5398C112.365 16.9261 112.736 15.5091 113.479 14.2889C114.242 13.0491 115.253 12.0848 116.512 11.396C117.79 10.6875 119.214 10.3333 120.782 10.3333C122.35 10.3333 123.763 10.6875 125.022 11.396C126.301 12.0848 127.312 13.0491 128.055 14.2889C128.818 15.5091 129.2 16.9261 129.2 18.5398ZM125.486 18.5398C125.486 17.5362 125.27 16.6703 124.836 15.9421C124.423 15.1942 123.856 14.6137 123.134 14.2004C122.433 13.7871 121.649 13.5804 120.782 13.5804C119.916 13.5804 119.121 13.7871 118.399 14.2004C117.698 14.6137 117.13 15.1942 116.697 15.9421C116.285 16.6703 116.078 17.5362 116.078 18.5398C116.078 19.5239 116.285 20.3898 116.697 21.1377C117.13 21.8658 117.698 22.4365 118.399 22.8498C119.121 23.2632 119.916 23.4697 120.782 23.4697C121.649 23.4697 122.433 23.2632 123.134 22.8498C123.856 22.4365 124.423 21.8658 124.836 21.1377C125.27 20.3898 125.486 19.5239 125.486 18.5398Z" fill="#81818B"/>
<path d="M143.041 10.6284C143.577 10.6284 144.021 10.8055 144.372 11.1598C144.722 11.4943 144.898 11.9174 144.898 12.4291V19.9273C144.898 22.0134 144.289 23.6665 143.072 24.8867C141.854 26.1069 140.101 26.7168 137.811 26.7168C135.521 26.7168 133.767 26.1069 132.55 24.8867C131.353 23.6665 130.755 22.0134 130.755 19.9273V12.4291C130.755 11.9174 130.93 11.4943 131.281 11.1598C131.632 10.8055 132.075 10.6284 132.612 10.6284C133.148 10.6284 133.592 10.8055 133.943 11.1598C134.293 11.4943 134.469 11.9174 134.469 12.4291V19.9273C134.469 21.1278 134.747 22.0232 135.304 22.6136C135.861 23.1844 136.697 23.4697 137.811 23.4697C138.945 23.4697 139.792 23.1844 140.348 22.6136C140.906 22.0232 141.184 21.1278 141.184 19.9273V12.4291C141.184 11.9174 141.36 11.4943 141.71 11.1598C142.061 10.8055 142.505 10.6284 143.041 10.6284Z" fill="#81818B"/>
<path d="M146.411 23.9716C146.205 23.6961 146.112 23.3419 146.133 22.9089C146.154 22.4759 146.422 22.102 146.938 21.7871C147.268 21.5903 147.618 21.5116 147.99 21.551C148.361 21.5707 148.722 21.7477 149.073 22.0823C149.672 22.653 150.301 23.0958 150.961 23.4107C151.621 23.7256 152.446 23.883 153.436 23.883C153.746 23.8633 154.086 23.824 154.458 23.765C154.829 23.6863 155.149 23.5288 155.417 23.2927C155.705 23.0368 155.85 22.653 155.85 22.1413C155.85 21.7084 155.695 21.364 155.386 21.1081C155.076 20.8523 154.664 20.6359 154.148 20.4587C153.653 20.2816 153.096 20.1143 152.477 19.9569C151.837 19.7797 151.177 19.583 150.496 19.3665C149.836 19.15 149.227 18.8745 148.67 18.5398C148.114 18.1856 147.66 17.7232 147.309 17.1524C146.958 16.5817 146.783 15.8633 146.783 14.9975C146.783 14.0134 147.071 13.177 147.649 12.4882C148.227 11.7994 148.97 11.2681 149.877 10.8941C150.806 10.5202 151.775 10.3333 152.786 10.3333C153.426 10.3333 154.096 10.4119 154.798 10.5694C155.499 10.7072 156.17 10.9433 156.81 11.2779C157.449 11.5927 157.986 12.0159 158.419 12.5472C158.645 12.8424 158.78 13.1967 158.821 13.61C158.862 14.0233 158.666 14.3972 158.233 14.7318C157.924 14.9679 157.563 15.0762 157.15 15.0565C156.738 15.0171 156.397 14.8794 156.129 14.6432C155.778 14.2102 155.304 13.8658 154.705 13.61C154.127 13.3542 153.457 13.2262 152.694 13.2262C152.384 13.2262 152.044 13.2656 151.672 13.3443C151.322 13.4033 151.012 13.551 150.744 13.7871C150.476 14.0036 150.342 14.3578 150.342 14.8498C150.342 15.3025 150.496 15.6666 150.806 15.9421C151.115 16.1979 151.528 16.4144 152.044 16.5916C152.58 16.749 153.148 16.9065 153.746 17.0639C154.365 17.2213 154.994 17.4083 155.634 17.6247C156.274 17.8413 156.861 18.1266 157.398 18.4808C157.934 18.8351 158.367 19.2976 158.697 19.8683C159.028 20.4193 159.192 21.1278 159.192 21.9938C159.192 22.9975 158.883 23.8536 158.264 24.562C157.645 25.2706 156.871 25.8117 155.943 26.1857C155.015 26.5401 154.065 26.7168 153.096 26.7168C151.879 26.7168 150.662 26.5204 149.444 26.1267C148.227 25.7132 147.216 24.995 146.411 23.9716Z" fill="#81818B"/>
<path d="M4.87562 4.02996C7.0298 2.06809 9.9549 0.92296 12.9195 0.780528C13.9342 0.780528 14.9518 0.786303 15.9665 0.777588C15.9147 1.81525 15.9665 2.85575 15.936 3.89336C15.7928 6.21276 14.8939 8.47981 13.3796 10.2993C11.4113 12.7466 8.40095 14.3887 5.20469 14.8131C3.80919 15.0281 2.39232 14.8915 0.987735 14.9293C1.0121 13.787 0.935918 12.642 1.03037 11.5026C1.30463 8.67747 2.70317 5.97152 4.87562 4.02996Z" fill="#81818B"/>
<path d="M16.9061 0.777588C17.9939 0.789243 19.0816 0.771813 20.1724 0.783416C22.8872 0.966483 25.5655 1.96052 27.6098 3.68415C29.8645 5.52973 31.4096 8.16885 31.8054 10.9882C31.9792 12.296 31.8695 13.6185 31.9367 14.9322C30.9859 14.9293 30.0383 14.9264 29.0875 14.9322C26.7507 14.8712 24.4533 14.1504 22.4972 12.9355C21.5953 12.3193 20.669 11.6944 19.9926 10.8399C18.5088 9.25875 17.5002 7.27362 17.1194 5.18097C16.8329 3.72767 16.9487 2.24538 16.9061 0.777588Z" fill="#81818B"/>
<path d="M0.989776 15.7634C1.95567 15.8157 2.92461 15.7198 3.88741 15.8215C8.00992 15.9058 12.0106 18.1147 14.1464 21.4776C15.3714 23.361 16.0295 25.5933 15.9442 27.8107C15.9411 28.5378 15.9533 29.2613 15.932 29.9853C14.4024 29.9412 12.8576 30.0603 11.3432 29.7784C7.97947 29.2382 4.88685 27.3283 3.0251 24.6021C1.61437 22.6198 0.910553 20.1987 0.983686 17.8067C0.983686 17.1236 0.983686 16.4435 0.989776 15.7634Z" fill="#81818B"/>
<path d="M26.7884 16.0714C28.446 15.7196 30.1548 15.7778 31.8401 15.7778L31.9136 15.8476C31.8768 17.3677 32.0018 18.9052 31.6821 20.4078C31.0085 23.7794 28.6686 26.7903 25.5209 28.4441C23.5617 29.4849 21.3131 29.9963 19.0736 29.9732C18.3576 29.9763 17.6385 29.9616 16.9225 29.9816C16.9225 28.7232 16.8676 27.4592 17.0169 26.2061C17.3643 23.1748 19.0827 20.3526 21.5538 18.446C23.0833 17.295 24.8811 16.4608 26.7884 16.0714Z" fill="#81818B"/>
<path d="M44.4217 24.3555C44.4217 24.8672 44.2359 25.3 43.8652 25.6544C43.514 25.9891 43.0704 26.1564 42.5344 26.1564C42.0183 26.1564 41.5852 25.9891 41.2345 25.6544C40.8838 25.3 40.7084 24.8672 40.7084 24.3555V6.11191C40.7084 5.60019 40.8838 5.17709 41.2345 4.84256C41.6056 4.48829 42.0598 4.31116 42.5963 4.31116C43.1323 4.31116 43.5654 4.48829 43.8957 4.84256C44.2464 5.17709 44.4217 5.60019 44.4217 6.11191V24.3555Z" fill="#81818B"/>
<path d="M59.3275 10.3628C59.8636 10.3628 60.3072 10.5399 60.6584 10.8941C61.0086 11.2287 61.1839 11.6518 61.1839 12.1635V19.6617C61.1839 21.7478 60.5754 23.4009 59.3585 24.6211C58.141 25.8413 56.3875 26.4512 54.0969 26.4512C51.8074 26.4512 50.0534 25.8413 48.8365 24.6211C47.64 23.4009 47.0415 21.7478 47.0415 19.6617V12.1635C47.0415 11.6518 47.2168 11.2287 47.5675 10.8941C47.9182 10.5399 48.3618 10.3628 48.8984 10.3628C49.4349 10.3628 49.878 10.5399 50.2287 10.8941C50.58 11.2287 50.7553 11.6518 50.7553 12.1635V19.6617C50.7553 20.8622 51.0341 21.7576 51.5906 22.348C52.1476 22.9188 52.9834 23.2041 54.0969 23.2041C55.2325 23.2041 56.0778 22.9188 56.6353 22.348C57.1918 21.7576 57.4706 20.8622 57.4706 19.6617V12.1635C57.4706 11.6518 57.646 11.2287 57.9967 10.8941C58.3474 10.5399 58.791 10.3628 59.3275 10.3628Z" fill="#81818B"/>
<path d="M72.3533 10.0676C74.0039 10.0676 75.2208 10.4514 76.0052 11.2189C76.789 11.9668 77.3051 12.9409 77.5524 14.1414L77.0263 13.8757L77.2741 13.4034C77.5214 12.9507 77.9031 12.4686 78.4191 11.9569C78.9347 11.4255 79.5537 10.9828 80.2756 10.6285C81.0184 10.2545 81.8437 10.0676 82.7514 10.0676C84.2372 10.0676 85.3612 10.3727 86.1246 10.9827C86.9089 11.5928 87.4449 12.4095 87.7337 13.4329C88.023 14.4366 88.1674 15.5584 88.1674 16.7982V24.3554C88.1674 24.8672 87.992 25.3 87.6408 25.6544C87.2901 25.989 86.847 26.1564 86.3104 26.1564C85.7744 26.1564 85.3302 25.989 84.9795 25.6544C84.6288 25.3 84.4535 24.8672 84.4535 24.3554V16.7982C84.4535 16.1488 84.3711 15.5683 84.2062 15.0565C84.0409 14.5251 83.7416 14.102 83.3085 13.7871C82.8753 13.4723 82.2564 13.3148 81.4521 13.3148C80.6677 13.3148 79.9973 13.4723 79.4403 13.7871C78.8827 14.102 78.4601 14.5251 78.1713 15.0565C77.9031 15.5683 77.7687 16.1488 77.7687 16.7982V24.3554C77.7687 24.8672 77.5933 25.3 77.2432 25.6544C76.8925 25.989 76.4483 26.1564 75.9123 26.1564C75.3757 26.1564 74.9321 25.989 74.5819 25.6544C74.2307 25.3 74.0553 24.8672 74.0553 24.3554V16.7982C74.0553 16.1488 73.9729 15.5683 73.8075 15.0565C73.6427 14.5251 73.3434 14.102 72.9103 13.7871C72.4772 13.4723 71.8577 13.3148 71.0534 13.3148C70.2696 13.3148 69.5991 13.4723 69.0416 13.7871C68.4851 14.102 68.0619 14.5251 67.7732 15.0565C67.5049 15.5683 67.371 16.1488 67.371 16.7982V24.3554C67.371 24.8672 67.1957 25.3 66.845 25.6544C66.4938 25.989 66.0507 26.1564 65.5141 26.1564C64.9776 26.1564 64.5345 25.989 64.1832 25.6544C63.8325 25.3 63.6572 24.8672 63.6572 24.3554V12.1635C63.6572 11.6519 63.8325 11.2287 64.1832 10.8942C64.5345 10.5399 64.9776 10.3628 65.5141 10.3628C66.0507 10.3628 66.4938 10.5399 66.845 10.8942C67.1957 11.2287 67.371 11.6519 67.371 12.1635V13.4329L66.9064 13.3444C67.0923 13.0098 67.3506 12.6555 67.6803 12.2816C68.0105 11.888 68.4126 11.5239 68.8872 11.1893C69.3618 10.8548 69.8879 10.5891 70.4654 10.3923C71.0434 10.1758 71.6729 10.0676 72.3533 10.0676Z" fill="#81818B"/>
<path d="M94.1361 24.3555C94.1361 24.8672 93.9607 25.3 93.6095 25.6544C93.2593 25.989 92.8157 26.1564 92.2791 26.1564C91.7431 26.1564 91.299 25.989 90.9483 25.6544C90.5981 25.3 90.4227 24.8672 90.4227 24.3555V12.1635C90.4227 11.6519 90.5981 11.2287 90.9483 10.8942C91.299 10.5399 91.7431 10.3628 92.2791 10.3628C92.8157 10.3628 93.2593 10.5399 93.6095 10.8942C93.9607 11.2287 94.1361 11.6519 94.1361 12.1635V24.3555ZM92.2482 8.44396C91.5468 8.44396 91.0517 8.33576 90.7624 8.11925C90.4742 7.90279 90.3298 7.51902 90.3298 6.96798V6.40707C90.3298 5.83639 90.4847 5.45256 90.7934 5.25579C91.1236 5.03928 91.6192 4.93103 92.2791 4.93103C93.0015 4.93103 93.5071 5.03928 93.7953 5.25579C94.0846 5.47225 94.229 5.85603 94.229 6.40707V6.96798C94.229 7.5387 94.0741 7.9323 93.7644 8.14875C93.4557 8.34558 92.9496 8.44396 92.2482 8.44396Z" fill="#81818B"/>
<path d="M105.256 10.0676C106.783 10.0676 107.938 10.3727 108.722 10.9827C109.527 11.5928 110.073 12.4095 110.362 13.4329C110.672 14.4366 110.826 15.5584 110.826 16.7982V24.3554C110.826 24.8672 110.651 25.3 110.3 25.6544C109.95 25.989 109.506 26.1564 108.969 26.1564C108.433 26.1564 107.99 25.989 107.639 25.6544C107.288 25.3 107.112 24.8672 107.112 24.3554V16.7982C107.112 16.1488 107.02 15.5683 106.835 15.0565C106.669 14.5251 106.36 14.102 105.906 13.7871C105.452 13.4723 104.802 13.3148 103.956 13.3148C103.131 13.3148 102.429 13.4723 101.852 13.7871C101.295 14.102 100.862 14.5251 100.552 15.0565C100.263 15.5683 100.118 16.1488 100.118 16.7982V24.3554C100.118 24.8672 99.9436 25.3 99.5929 25.6544C99.2422 25.989 98.7981 26.1564 98.262 26.1564C97.7255 26.1564 97.2819 25.989 96.9317 25.6544C96.5805 25.3 96.4051 24.8672 96.4051 24.3554V12.1635C96.4051 11.6519 96.5805 11.2287 96.9317 10.8942C97.2819 10.5399 97.7255 10.3628 98.262 10.3628C98.7981 10.3628 99.2422 10.5399 99.5929 10.8942C99.9436 11.2287 100.118 11.6519 100.118 12.1635V13.4329L99.6549 13.3444C99.8407 13.0098 100.108 12.6555 100.459 12.2816C100.81 11.888 101.223 11.5239 101.697 11.1893C102.172 10.8548 102.708 10.5891 103.306 10.3923C103.905 10.1758 104.555 10.0676 105.256 10.0676Z" fill="#81818B"/>
<path d="M129.2 18.2742C129.2 19.888 128.818 21.3149 128.055 22.5547C127.312 23.7749 126.301 24.7294 125.022 25.4181C123.763 26.1072 122.35 26.4512 120.782 26.4512C119.214 26.4512 117.79 26.1072 116.512 25.4181C115.253 24.7294 114.242 23.7749 113.479 22.5547C112.736 21.3149 112.365 19.888 112.365 18.2742C112.365 16.6605 112.736 15.2435 113.479 14.0233C114.242 12.7835 115.253 11.8191 116.512 11.1303C117.79 10.4218 119.214 10.0676 120.782 10.0676C122.35 10.0676 123.763 10.4218 125.022 11.1303C126.301 11.8191 127.312 12.7835 128.055 14.0233C128.818 15.2435 129.2 16.6605 129.2 18.2742ZM125.486 18.2742C125.486 17.2706 125.27 16.4046 124.836 15.6765C124.423 14.9286 123.856 14.3481 123.134 13.9348C122.433 13.5215 121.649 13.3148 120.782 13.3148C119.916 13.3148 119.121 13.5215 118.399 13.9348C117.698 14.3481 117.13 14.9286 116.697 15.6765C116.285 16.4046 116.078 17.2706 116.078 18.2742C116.078 19.2583 116.285 20.1242 116.697 20.8721C117.13 21.6002 117.698 22.1709 118.399 22.5842C119.121 22.9975 119.916 23.2041 120.782 23.2041C121.649 23.2041 122.433 22.9975 123.134 22.5842C123.856 22.1709 124.423 21.6002 124.836 20.8721C125.27 20.1242 125.486 19.2583 125.486 18.2742Z" fill="#81818B"/>
<path d="M143.041 10.3628C143.577 10.3628 144.021 10.5399 144.372 10.8941C144.722 11.2287 144.898 11.6518 144.898 12.1635V19.6617C144.898 21.7478 144.289 23.4009 143.072 24.6211C141.854 25.8413 140.101 26.4512 137.811 26.4512C135.521 26.4512 133.767 25.8413 132.55 24.6211C131.353 23.4009 130.755 21.7478 130.755 19.6617V12.1635C130.755 11.6518 130.93 11.2287 131.281 10.8941C131.632 10.5399 132.075 10.3628 132.612 10.3628C133.148 10.3628 133.592 10.5399 133.943 10.8941C134.293 11.2287 134.469 11.6518 134.469 12.1635V19.6617C134.469 20.8622 134.747 21.7576 135.304 22.348C135.861 22.9188 136.697 23.2041 137.811 23.2041C138.945 23.2041 139.792 22.9188 140.348 22.348C140.906 21.7576 141.184 20.8622 141.184 19.6617V12.1635C141.184 11.6518 141.36 11.2287 141.71 10.8941C142.061 10.5399 142.505 10.3628 143.041 10.3628Z" fill="#81818B"/>
<path d="M146.411 23.706C146.205 23.4305 146.112 23.0762 146.133 22.6433C146.154 22.2103 146.422 21.8364 146.938 21.5215C147.268 21.3247 147.618 21.246 147.99 21.2854C148.361 21.305 148.722 21.4821 149.073 21.8167C149.672 22.3874 150.301 22.8302 150.961 23.1451C151.621 23.46 152.446 23.6174 153.436 23.6174C153.746 23.5977 154.086 23.5584 154.458 23.4993C154.829 23.4206 155.149 23.2632 155.417 23.027C155.705 22.7712 155.85 22.3874 155.85 21.8757C155.85 21.4428 155.695 21.0983 155.386 20.8425C155.076 20.5867 154.664 20.3702 154.148 20.1931C153.653 20.016 153.096 19.8487 152.477 19.6912C151.837 19.5141 151.177 19.3173 150.496 19.1008C149.836 18.8844 149.227 18.6089 148.67 18.2742C148.114 17.92 147.66 17.4575 147.309 16.8868C146.958 16.3161 146.783 15.5977 146.783 14.7318C146.783 13.7478 147.071 12.9114 147.649 12.2226C148.227 11.5338 148.97 11.0024 149.877 10.6285C150.806 10.2545 151.775 10.0676 152.786 10.0676C153.426 10.0676 154.096 10.1463 154.798 10.3038C155.499 10.4415 156.17 10.6777 156.81 11.0123C157.449 11.3271 157.986 11.7503 158.419 12.2816C158.645 12.5768 158.78 12.931 158.821 13.3444C158.862 13.7576 158.666 14.1315 158.233 14.4661C157.924 14.7023 157.563 14.8105 157.15 14.7908C156.738 14.7515 156.397 14.6138 156.129 14.3776C155.778 13.9446 155.304 13.6002 154.705 13.3444C154.127 13.0885 153.457 12.9606 152.694 12.9606C152.384 12.9606 152.044 13 151.672 13.0787C151.322 13.1377 151.012 13.2854 150.744 13.5215C150.476 13.738 150.342 14.0922 150.342 14.5842C150.342 15.0369 150.496 15.4009 150.806 15.6765C151.115 15.9323 151.528 16.1488 152.044 16.3259C152.58 16.4834 153.148 16.6408 153.746 16.7982C154.365 16.9557 154.994 17.1426 155.634 17.3591C156.274 17.5757 156.861 17.8609 157.398 18.2152C157.934 18.5695 158.367 19.0319 158.697 19.6027C159.028 20.1537 159.192 20.8622 159.192 21.7281C159.192 22.7318 158.883 23.588 158.264 24.2964C157.645 25.0049 156.871 25.546 155.943 25.9201C155.015 26.2745 154.065 26.4512 153.096 26.4512C151.879 26.4512 150.662 26.2548 149.444 25.861C148.227 25.4476 147.216 24.7294 146.411 23.706Z" fill="#81818B"/>
</svg>
